<?xml version="1.0" encoding="UTF-8"?>
<svg version="1.1" viewBox="0 0 1024 1024" width="1280" height="1280" xmlns="http://www.w3.org/2000/svg">
<path transform="translate(626,117)" d="m0 0h10l13 2 14 7 10 8 9 11 7 15 2 7v24l-5 13-7 11v5l5 2 7 4h6l2-4 9-9 5-2 14-1 11 1 7 4 7 6 7 10 11 9 6 1h6l5 4 3 3 6 5 5 9 6 11 2 8 1 15 3 9 8 7 4 6 5 5 6 8 8 12 7 7 6 5 5 13 3 7 1 4v23l4 2h15l6 3 5 5 2 6v12l-3 6-7 6-9 5v2l11 7 10 5 14 14 10 8 4 5 8 20 3 8 1 5-3 5-4 4 1 7 8 4 1 7-2 12-6 13-6 11-10 13-6 8-2 3h-2l-1 3-6 5v7l4 13 1 5v15l-4 1-2-7-1-14-4-6h-8l-3 3v3l4 2 4 5 5 11v5l-5 6-3 13-2 2-5-1-3-5v-7l2-4-5-2-2-10-1-6 4-7-1-3-8 1-6 4v6l1 1 2 10 7 8 1 4-5 11 2 11 6 21 1 16v14l-2 18-5 16-5 12-11 17-11 13-8 8-10 6-11 4-10 3-19 2h-17l-20-3-26-8-12-3-7 1-5 5-9 14-9 9-12 8-13 4-6 1h-17l-11-3-12-6-10-8-8-9-6-10-4-12-2-13h-8l-11 2-11 1h-42l-23-2-19-4-19-5h-5l-1 2-2 21-2 14 4 6 13 13 16 10 16 7 16 4 7 1 29 1h143l10-2 3-1 2-4 7-3h24l18 1 7 3 29 1 5 3 2 3v11l-4 5-33 2-5 2h-39l-9-1-5-2-22-1-169-1-20-3-12-4-16-8-13-8-11-9-3-1-5 5-10 14-11 12-3 7 9 3 19 1 16 4 9 1 2 1-2 4-28 6-18 4-10 1h-103l-57 2h-30l-24-4-22-2-9-2-9-1-2-2 9-3 5-5 4-2 35-5 8-2 15-1h32l5-2 1-3-7-8-12-14-12-22-4-13-2-14v-18l2-14 5-16 10-26 1-6-4-8-9-4-4-2-7 1-14 8-13 5-4 1h-28l-12-4-10-6-5-4v-2h-2l-8-11-5-11-2-9v-7l3-5 7-2-1-7-7-7-1-9 6-26 5-18 6-10-1-6-9-12-8-14-11-13-6-10-4-13v-20l4-13 7-11 9-9 5-4v-9l-2-8-1-11v-23l2-17 5-19 8-18 6-12 9-14 8-10 9-10h2v-2l17-13 12-7 14-6 21-6 12-2 4-4 5-16 1-10 5-6 2-1h9l8 7 1 2h5l11-11-1-5-6-7-1-7-1-6-3-4v-9l5-4v-13l2-4 6-4 5-8 5-4 9-3 6-4 5-2 21 1 6 3 13 7 4 4 8 12 4 7 3 8 1 1 7-1 9-5 13-1 13-5 14-6 30-9 28-5 20-2h37l21 2 3-1 2-6 3-14 4-11 8-11 6-7 10-7 8-4 6-2z" fill="#0E95C8"/>
<path transform="translate(524,253)" d="m0 0h13l26 2 26 5 27 9 22 10 23 14 17 13 10 9 8 7 15 16 13 17 11 18 10 19 8 20 7 23 4 21 2 21v28l-3 24-4 20-6 21-8 21-8 17-10 17-12 17-9 11-11 12-12 12-14 11-14 10-15 9-15 8-23 9-22 6-29 4h-44l-23-3-25-6-22-8-23-11-19-12-14-11-14-12-13-13-9-11-12-16-11-18-11-21-9-23-7-26-3-18-1-11v-40l2-17 5-23 9-27 11-24 10-17 8-12 11-14 12-13 14-14 14-11 14-10 19-11 25-12 24-8 29-6z" fill="#F9FAFA"/>
<path transform="translate(391,297)" d="m0 0 2 1-13 11-10 8-18 18-9 11-11 15-15 26-11 25-8 26-5 25-1 11v40l3 24 6 24 6 18 9 20 9 17 12 18 10 13 12 14 12 12 11 9 13 10 21 13 23 11 27 9 24 5 17 2h44l29-4 22-6 25-10 22-12 16-11 13-10 13-12 11-11 9-11 13-18 9-15 8-15 10-25 6-20 4-18 3-19 1-11v-28l-3-27-5-22-9-27-12-25-9-15v-2l4 2 6 11 2 1v3h2l6 11v2l2 1v2l5 10 3 4 3 8 2 4 4 10 4 14 2 6 3 15 2 16 1 9 10 1 7 3 5-1 14-7 9-3 13-1-1-15-1-3-2-22-3-17v-5l3-1 5 2 9 27 1 11-2 4v14l-1 3 3 1-6 2-7 2-14 2-12 5-10 7-9 9-8 14-4 14v20l5 16 7 11 7 8 10 7 12 5 8 2h21l11-2v2l-13 5-1 5-1 3h-2l-2 5-6 3h-2v2h-2v5h-8l-4-2 1-11-7-5-3 9-11 22-3 8 15 12 11 14 10 18 1 5h2l7 16 2 9v27l-5 16-5 9-12 14-11 8-5 3-5 2-13 8-15 6-13 3-11 1h-9l-13-2-14-5-18-10-10-8-13-11-8-9-26 12-24 8-20 5h-6v2h-3l1 15 1 7-2-2-3-17h-8l-11 2-11 1h-42l-23-2-19-4-19-5h-5l-1 2-2 21-2 14 4 6 13 13 16 10 16 7 16 4 7 1 29 1h143l10-2 3-1 2-4 7-3h24l18 1 7 3 29 1 5 3 2 3v11l-4 5-33 2-5 2h-39l-9-1-5-2-22-1-169-1-20-3-12-4-16-8-13-8-11-9-3-1-5 5-10 14-11 12-3 7 9 3 19 1 16 4 9 1 2 1-2 4-28 6-18 4-10 1h-103l-57 2h-30l-24-4-22-2-9-2-9-1-2-2 9-3 5-5 4-2 35-5 8-2 15-1h32l5-2 1-3-7-8-12-14-6-11-8-24-2-10v-24l4-18 6-14 9-14 10-12 14-11 14-7 15-4 7-1h17l-15-15-8-10-10-13-10-15-11-18-4-7v-3l-3-1-1-5-7-14-4-4-18 1-17-2-21-7-11-6-4 1-5 3 2-4 4-4 5 2 17 8 12 4 18 2 20-2-9-24-6-22-6-32-2-27v-19l1-7h1l1 35 3 25 4 19v3l5 1-1-3 1-3 13-8h15l4-2 2-6 1-22v-17l2-9v-7l3-12 2-10 6-23 4-9 3-8 5-9 3-9 5-12 6-7 2-4h2v-2h2l2-6h2l-1-3 4-5 3-5h2v-4h2v-2l5-4 7-10 15-16 5-6 8-7 12-10z" fill="#22679C"/>
<path transform="translate(861,368)" d="m0 0 2 1 3 10v23l4 2h15l6 3 5 5 2 6v12l-3 6-7 6-9 5v2l11 7 10 5 14 14 10 8 4 5 8 20 3 8 1 5-3 5-4 4 1 7 8 4 1 7-2 12-6 13-6 11-10 13-6 8-2 3h-2l-1 3-6 5v7l4 13 1 5v15l-4 1-2-7-1-14-4-6h-8l-3 3v3l4 2 4 5 5 11v5l-5 6-3 13-2 2-5-1-3-5v-7l2-4-5-2-2-10-1-6 4-7-1-3-8 1-6 4v6l1 1 2 10 7 8 1 4-5 11 2 11 6 21 1 16v14l-2 18-5 16-5 12-11 17-11 13-8 8-10 6-11 4-10 3-19 2h-17l-20-3-26-8-12-3-7 1-5 5-9 14-9 9-12 8-13 4-6 1h-17l-11-3-12-6-10-8-8-9-6-10-3-13v-15h3v-2l26-6 24-8 26-12 4 5 8 8 9 7 10 8 20 11 16 5 9 1h9l16-2 14-4 16-8 7-5 7-3 9-6 7-6 10-13 5-11 3-11v-27l-3-12-5-11v-2h-2l-8-16-7-11-9-11-14-11 7-16 11-23 5 2 3 3-1 11 3 1h7l1-4h2v-2l6-3h2l2-5h2l1-8 8-4 6-1v-2l-11 3h-21l-16-5-10-6-9-8-7-10-5-10-3-11v-20l4-14 6-11 9-10 8-7 14-7 7-2 16-2 4-3v-19l2-3-1-10-9-27-1-5 7-2 2-4 1 2 4-1 1-4 6-4 3-5v-4l4-1v-11z" fill="#177AAD"/>
<path transform="translate(439,796)" d="m0 0 9 1 25 6 29 4 18 1h21l24-2 13-2h8l-3 1 1 15 1 7-2-2-3-17h-8l-11 2-11 1h-42l-23-2-19-4-19-5h-5l-1 2-2 21-2 14 4 6 13 13 16 10 16 7 16 4 7 1 29 1h143l10-2 3-1 2-4 7-3h24l18 1 7 3 29 1 5 3 2 3v11l-4 5-33 2-5 2h-39l-9-1-5-2-22-1-169-1-20-3-12-4-16-8-13-8-11-9-3-1-5 5-10 14-11 12-3 7 9 3 19 1 16 4 9 1 2 1-2 4-28 6-18 4-10 1h-103l-57 2h-30l-24-4-22-2-9-2-9-1-2-2 9-3 5-5 4-2 35-5 8-2 15-1h32l5-2 1-3-7-8-12-14-6-11v-5l8 6 23 12 16 6 13 3 9 1h19l19-4 16-8 12-8 14-11 15-14 18-20 8-11 7 3 7 5v2l4 2 1 3z" fill="#0F95C8"/>
<path transform="translate(297,721)" d="m0 0h13l7 2 9 9 8 7 15 13 12 8 3 3-17 1-17 3-10 6-7 7-8 13-3 7-1 11v9l3 15 7 11 5 6 8 1 3 2h10l14-4-12-9-6-9-2-7v-10l4-10 7-7 6-3 5-1h9l10 4 5 5 5 8 2 11 13-12 3-7v-8l-3-12-1-5 5 1 15 6 17 7 5 2-1 7-1 1-15-1-7 12-11 13-8 8-7 8-13 12-16 12-15 9-9 4-19 4h-19l-14-2-17-5-25-12-10-7-5-5-5-13-3-14v-24l4-18 6-14 9-14 10-12 14-11 14-7 15-4z" fill="#134D7D"/>
<path transform="translate(236,333)" d="m0 0h27l3 2-13 24-9 20-10 30-7 28-4 24-2 27v19l2 27 7 36 7 24 6 16v2l-8 2-14 1-16-2-17-6-15-8-10-8-8-7 3-3 14-9 10-9 1-4-3-5 2-6 1-6-2-3 8-1 4-5-4-4 1-4 1-3-4-13-5-2-6-2v-7l-5-5 1-5 2-3-5-2-11-5-10-3-3-12-1-6v-30l4-20 6-15 6-11 10-13 13-13 10-7 15-8 16-5z" fill="#D3DDE2"/>
<path transform="translate(799,645)" d="m0 0h2v2l5-1 8 3 16 8 13 9 13 13 10 15 6 14 4 16v28l-4 18-3 11-6 12-8 12-11 13-8 8-10 6-11 4-10 3-19 2h-17l-20-3-26-8-12-3-7 1-5 5-9 14-9 9-12 8-13 4-6 1h-17l-11-3-12-6-10-8-8-9-6-10-3-13v-15h3v-2l26-6 24-8 26-12 4 5 8 8 9 7 10 8 20 11 16 5 9 1h9l16-2 14-4 16-8 7-5 7-3 9-6 7-6 10-13 5-11 3-11v-27l-3-12-5-11v-2h-2l-8-16-7-11-9-11-14-11 4-6z" fill="#EF9B38"/>
<path transform="translate(149,618)" d="m0 0 7 4 10 7 17 8 15 5 10 2h27l15-3h6l10 18 10 15 12 17 11 13 7 8 9 9v1h-18l-15 3-14 5-11 7-12 10-10 13-8 14-5 13-3 15v24l4 17 5 12-1 3-6-12-4-16-1-8v-18l2-14 5-16 10-26 1-6-4-8-9-4-4-2-7 1-14 8-13 5-4 1h-28l-12-4-10-6-5-4v-2h-2l-8-11-5-11-2-9v-7l3-5 7-2-1-7-7-7 1-3 9 8 8 4 2-2 4-10 6-1 9-45z" fill="#B9CFDA"/>
<path transform="translate(727,359)" d="m0 0 4 2 6 11 2 1v3h2l6 11v2l2 1v2l5 10 3 4 3 8 2 4 4 10 4 14 2 6 3 15 2 16 1 9 10 1 7 3 5-1 14-7 9-3 13-1-1-15-1-3-2-22-3-17v-5l3-1 5 2 9 27 1 11-2 4v14l-1 3 3 1-6 2-7 2-14 2-12 5-10 7-9 9-8 14-4 14v20l5 16 7 11 7 8 10 7 12 5 8 2h21l11-2v2l-13 5-1 5-1 3h-2l-2 5-6 3h-2v2h-2v5h-8l-4-2 1-11-5-4v-2l-4-1-3-1-5-5-5-3-6-7v-2h-2l-9-15-3-6-7 6-4 8h-2l-1 6-7 15-16 32-4 6-12 16-5 5-10 12-13 13h-2l-2 4-7 6-7 5h-2v2l-13 8-5 4-10 6-17 7-5 3-12 3-16 6-11 2-17 4-31 3h-16l-14-1-16-3-14-3-20-5-13-5-10-4-8-4-4-1v-2l-9-3-7-4-1-2-9-3-6-5-7-5v-3l-4-1v-2l-6-2-12-12-7-6v-2l-3-1v-2h-2l-6-7v-2h-2l-10-13-7-10v-2h-2l-3-6v-2h-2l-8-16-8-17-1-5-4-9-2-9-2-7-6-28v-22l1-8 1-33 2-1 1 38 3 24 6 24 6 18 9 20 9 17 12 18 10 13 12 14 12 12 11 9 13 10 21 13 23 11 27 9 24 5 17 2h44l29-4 22-6 25-10 22-12 16-11 13-10 13-12 11-11 9-11 13-18 9-15 8-15 10-25 6-20 4-18 3-19 1-11v-28l-3-27-5-22-9-27-12-25-9-15z" fill="#134D7C"/>
<path transform="translate(841,480)" d="m0 0h10l12 3 13 5 11 7 7 7 7 11 5 15 1 7v11l-4 16-6 11-8 10-8 7-14 8-15 5-5 1h-21l-16-5-10-6-9-8-7-10-5-10-3-11v-20l4-14 6-11 9-10 8-7 14-7 7-2 16-2z" fill="#F09B36"/>
<path transform="translate(315,170)" d="m0 0 21 1 6 3 13 7 4 4 8 12 4 7v7l-2 3-5 2v1h6l2 2-1 7-5 5-11 7-17 14-12 11-13 11-11 11-9 11-6 7-9-1-12-3-19-2h-11l-8 2h-8l-21 6-14 6-16 10-11 9-13 13-10 14-1-2 10-14 11-12h2v-2l17-13 12-7 14-6 21-6 12-2 4-4 5-16 1-10 5-6 2-1h9l8 7 1 2h5l11-11-1-5-6-7-1-7-1-6-3-4v-9l5-4v-13l2-4 6-4 5-8 5-4 9-3 6-4z" fill="#F09B36"/>
<path transform="translate(220,386)" d="m0 0 3 1 6 8 5 6-9 7-9 8-5 3-9 8-8 13 1 1 2-1-3 12h2v2l5-5 10-8 6-7h2l2-4 4-2 1 7-2 10-3 18-1 19v44l-1 2-7 2 6 19 3 12 3-2 2 1 1 6h2l7 25 7 19v2l-8 2-14 1-16-2-17-6-15-8-10-8-8-7 3-3 14-9 10-9 1-4-3-5 2-6 1-6-2-3 8-1 4-5-4-4 1-4 1-3-4-13-5-2-6-2v-4h2l-1-5-3-3 1-10 2-6-1-10-4-3-3-6v-7l4 1 4 4 1-2h2l2-5 12-18 4-4 10-15 8-15 3-7z" fill="#F9F9F9"/>
<path transform="translate(777,679)" d="m0 0 5 5 7 8 6 9 4 13 1 7v13l-3 13-8 16-8 10-12 11-14 8-16 5-6 1h-18l-15-4-14-7-10-9-3-4 2-4 8-4 5-4 13-8 15-11 13-11 10-9 17-17 9-11 11-15z" fill="#ED9C3B"/>
<path transform="translate(662,777)" d="m0 0 4 5 8 8 9 7 10 8 7 4v13l-5 13-7 11-9 9-11 7-10 4-9 2h-15l-15-3-9-5-10-8-8-9-6-10-3-13v-15h3v-2l26-6 24-8z" fill="#F09B37"/>
<path transform="translate(434,838)" d="m0 0 8 6 12 12 16 10 16 7 16 4 7 1 29 1h143l10-2 3-1 2-4 7-3h24l18 1 7 3 29 1 5 3 2 3v11l-4 5-33 2-5 2h-39l-9-1-5-2-22-1-169-1-20-3-12-4-16-8-13-8-8-7-4-5-2-1 1-6z" fill="#225884"/>
<path transform="translate(807,669)" d="m0 0 5 2 10 14 6 10 3 6h2l7 16 2 9v27l-5 16-5 9-12 14-11 8-5 3-5 2-7 3-12 6-15 5-20 2-15-1-13-4-6-3-1-3v-2-4h-2l1-5h20l13-2 12-4 13-7 6-7 8-7 8-10 7-15 3-13v-13l-3-14-2-9-1-5 8-13z" fill="#0E94C8"/>
<path transform="translate(250,641)" d="m0 0h6l10 18 10 15 12 17 11 13 7 8 9 9v1h-18l-15 3-14 5-11 7-12 10-10 13-8 14-5 13-3 15v24l4 17 5 12-1 3-6-12-4-16-1-8v-18l2-14 5-16 10-26 1-6-4-8-9-4-4-2-7 1-14 8-13 5-4 1h-28l-12-4-10-6-5-4 1-2 10 7 8 4 10 3h21l13-4 11-6 8-7 7-10 5-11 2-8 1-27-11 2-4-9-6-9-2-6 3-2h34z" fill="#D2DCE1"/>
<path transform="translate(391,297)" d="m0 0 2 1-13 11-10 8-18 18-9 11-11 15-15 26-11 25-8 26h-3l-7 15-4 16-2 11-2 24-2 16v5l-1 3-1 16 3 15 9 32 4 14 2 10 2 13-1 5-4 2h-14l-11 3-2-1-1 4-10-1-1-6-7-14-4-4-18 1-17-2-21-7-11-6-4 1-5 3 2-4 4-4 5 2 17 8 12 4 18 2 20-2-9-24-6-22-6-32-2-27v-19l1-7h1l1 35 3 25 4 19v3l5 1-1-3 1-3 13-8h15l4-2 2-6 1-22v-17l2-9v-7l3-12 2-10 6-23 4-9 3-8 5-9 3-9 5-12 6-7 2-4h2v-2h2l2-6h2l-1-3 4-5 3-5h2v-4h2v-2l5-4 7-10 15-16 5-6 8-7 12-10z" fill="#1578AC"/>
<path transform="translate(290,476)" d="m0 0h1l1 38 3 24 2 12h-2l2 14 1 2-1 5h2l2 5 2 8 5 11 4 10 6 11 7 12 7 13 3 5v2l4 2 1 3h2l5 5 2 1v3h2l2 5h2l1 4h2v2h2l7 8 7 6 2 1v2h2v2l5 2 6 4 8 6 5 4 25 14 14 7 21 7 16 4 28 5 31 1 25-1 14-4 29-7 6-1v-2l14-5 30-15 10-7 9-6 9-8h2v-2l5-2v-2h2v-2l8-7 5-5 11-13 8-10 7-12 4-6h2l3-9 5-8 6-14 5-12 5-11 3-7 7-9h4l2 5 2-2 4 10 7 10 6 7 10 7 12 5 8 2h21l11-2v2l-13 5-1 5-1 3h-2l-2 5-6 3h-2v2h-2v5h-8l-4-2 1-11-5-4v-2l-4-1-3-1-5-5-5-3-6-7v-2h-2l-9-15-3-6-7 6-4 8h-2l-1 6-7 15-16 32-4 6-12 16-5 5-10 12-13 13h-2l-2 4-7 6-7 5h-2v2l-13 8-5 4-10 6-17 7-5 3-12 3-16 6-11 2-17 4-31 3h-16l-14-1-16-3-14-3-20-5-13-5-10-4-8-4-4-1v-2l-9-3-7-4-1-2-9-3-6-5-7-5v-3l-4-1v-2l-6-2-12-12-7-6v-2l-3-1v-2h-2l-6-7v-2h-2l-10-13-7-10v-2h-2l-3-6v-2h-2l-8-16-8-17-1-5-4-9-2-9-2-7-6-28v-22l1-8 1-33z" fill="#205987"/>
<path transform="translate(206,900)" d="m0 0h190l6 3 3 5 14-1 5 1 1 7-3 3-17 3h-5l-4 2h-96l-48 1h-50l-7-6-1-6 1-3h2l2-4 4-4z" fill="#F09A35"/>
<path transform="translate(347,763)" d="m0 0h12l8 2 12 5 15 8 4 6 3 12v8l-4 8-13 12h-1l-2-12-5-8v-2l-4-2-10-4h-9l-9 3-8 7-4 10v10l3 9 6 8 10 6 2 2-16 5h-10l-3-2-8-1-9-11-5-10-2-12v-9l1-11 8-16 11-12 10-6z" fill="#F8F8F9"/>
<path transform="translate(622,136)" d="m0 0h20l10 4 9 7 8 9 5 11 1 4v14l-3 10-3 6 1 4 4 1 1 3 3-1 2 5-5 4-6-2-9-4-21-9-19-7-30-8v-19l7-14 9-10 10-6z" fill="#134D7D"/>
<path transform="translate(898,605)" d="m0 0 4 4v2l4 1-4 4v7l4 13 1 5v15l-4 1-2-7-1-14-4-6h-8l-3 3v3l4 2 4 5 5 11v5l-5 6-3 13-2 2-5-1-3-5v-7l2-4-5-2-2-10-1-6 4-7-1-3-8 1-6 4v6l1 1 2 10 7 8 1 4-5 11 2 11 6 21 1 16v14l-2 18-5 16-1-3 4-15 1-6v-28l-4-16-7-15-7-11-9-10-10-9-17-10-9-3v-2l-3 1v-2l-3 1v-2l-5 1v-2l-5 2 1-5 14-29 5 2 3 3-1 11 8 2h4l3-6h4l-1 7 16 1v-7l2-5 4 1 2 9 12-2 2-1v-8h2l1-5h3l3 6v2l10-3 2-1-2-10z" fill="#B9CED9"/>
<path transform="translate(236,333)" d="m0 0h27l3 2-11 20-2-1v-10l5-7h2v-3l-18 2-2 2-3 2-14 7-3 1h-10l-5 1v10l3 1 10-5 2-5 8 1 3 5-4 5-1 7-4 3h-2l1 3-3 1-2 4-2 2-10-5h-3l-5 4h-2l-2 4-9 10-11 17-5 9-6 15h-4l2 5-2 10-2 11-2 5v7l6 2 3 2-1 2-13-4-3-12-1-6v-30l4-20 6-15 6-11 10-13 13-13 10-7 15-8 16-5z" fill="#B9CFDA"/>
<path transform="translate(777,679)" d="m0 0 5 5 7 8 2 4-7 10-10 13-7 11-13 15-12 11-13 9-14 7-8 2-3 2-10-1-7 3-4 1 1 3-3 1-8-9 2-4 8-4 5-4 13-8 15-11 13-11 10-9 17-17 9-11 11-15z" fill="#D48735"/>
<path transform="translate(186,507)" d="m0 0 4 1 4 12-1 6v3l2 2 1 5 2 1v2h3l5 5 6 3 2 3-1 7-6 9-7 1-7-9v-3h-2v2l-4 2 11 14v2h2v2l3 1-1 2h-2l-1-2-1 1 8 10 1 3 4 1 2-1-1-5-3-3 2-1v2l4 2v-1l1-5 2-1 2-5 5 1 4 10 9 17 2-1 3 10-8 2-14 1-16-2-17-6-15-8-10-8-8-7 3-3 14-9 10-9 1-4-3-5 2-6 1-6-2-3 8-1 4-5-4-4 1-4 1-3-4-13z" fill="#D4DEE2"/>
<path transform="translate(193,646)" d="m0 0 4 1 9 12 4 8v3l11-2v27l-4 13-6 11-9 10-11 7-12 5-5 1h-21l-15-5-10-7-5-4-9-13-4-11-1-5v-10l13-1 3 13 6 11 9 9 12 6 4 1h17l10-4 10-7 7-11 3-10v-8l-2-10-4-7-9-8-2-5v-6l4-3z" fill="#135282"/>
<path transform="translate(720,210)" d="m0 0 18 1 7 4 6 7 4 7-2 9 2 1-9 3-7 3-3 3h2v2l7-1h16l8 2 10 4 9 7 7 10 4 9 2 10h4l3 1v6l-3 8-7 12-3 3 7 5h2l2 7 7 2v2l-4 2-2 5-2 10 3 1-5 1-4-10 1-5 4-3-1-4-6-1-3 3-8-13-7-11 1-7 4-11v-11l-4-9-6-8-10-5-5-1h-8l-10 3h-5l-10-9-2-1 2-4 10-7 1-2v-7l-2-6-5-2-6-2-7 1-7 6-3 7-2-1-2-4-5-2h-2l2-5 4-6 8-7z" fill="#135080"/>
<path transform="translate(279,243)" d="m0 0 6 5 8 3-1 5-2 6 5 2 6 1 6-6 4 2v7l2 1 6-3 11-10 2 1-8 8-10 8-12 12-9 11-6 7-9-1-12-3-19-2h-11l-8 2h-8l-21 6-14 6-16 10-11 9-13 13-10 14-1-2 10-14 11-12h2v-2l17-13 12-7 14-6 21-6 12-2 4-4 5-16 1-10 5-6 2-1h9l8 7 1 2h5l11-11-1-5-4-4z" fill="#B9CFDA"/>
<path transform="translate(472,413)" d="m0 0h15l4 8 14 35 9 21v3h-18l-3-3-2-7h-28l-4 10h-19l8-20 19-42 2-4z" fill="#134F80"/>
<path transform="translate(635,413)" d="m0 0h20l-4 6-13 16-5 7 1 5 10 14 9 12 5 7h-23l-6-7-9-13v-2l-7 5-1 17h-18v-66h18l1 25 9-12h2l2-4z" fill="#134F7F"/>
<path transform="translate(642,281)" d="m0 0 9 3 14 7v2l5 2 12 6 8 6v2l5 2 3 2v3l4 1v2l5 2 9 10v2l4 2 11 12 12 17 7 10 4 8v3h2v3l2 1 12 27 3 3 3 9 5 12 2 2 2 13 2 14v7l1 7 14-5 12-2 1-2 9-1 8-2 3 1v-7h1v15l-16 3-13 5-9 5-20-5-2-9-2-16-4-20-3-7-3-11-4-8-3-8-3-6-3-4-4-9-2-4v-3l-2-1-2-6h-2v-3l-3-1-6-11-4-1-9-13-11-13-14-15-10-9-17-13-17-11-6-4z" fill="#1577AB"/>
<path transform="translate(861,368)" d="m0 0 2 1 3 10v23l4 2h15l6 3 5 5 2 6v12l-3 6-7 6-9 5v2l11 7 6 3-2 1h-3l-5 8h-1l1-11-12-6-5 10h-3v-13l-12-2-2 12h-4l-4-14-6-20-3-7v-3l7-2 2-4 1 2 4-1 1-4 6-4 3-5v-4l4-1v-11z" fill="#B9CED9"/>
<path transform="translate(220,386)" d="m0 0 3 1 6 8 5 6-9 7-9 8-5 3-9 8-8 13 1 1 2-1-3 12h2v2l5-5 10-8 6-7h2l2-4 4-2 1 7-2 10-3 18-2 16-4 4-3 5-4-1-1 1h-6l2-1v-3l-5 1-1 5-7-1-2 1-1-3 3-3 4-2 4-4-1-1-2 2h-2l-5 4-2-3v-4l-2 1-1 5v13l-4 4-5-6 1-10 2-6-1-10-4-3-3-6v-7l4 1 4 4 1-2h2l2-5 12-18 4-4 10-15 8-15 3-7z" fill="#E5E8EA"/>
<path transform="translate(220,664)" d="m0 0 2 3v2h2v5h2l2 3 1 6v6l5 5 1 6 6 4 7 4v2l5 2 5 3 2 4 2 1v2l4 1 5 2v2l2 1-12 6-10 8-6 5-10 13-8 14-5 13-3 15v24l4 17 5 12-1 3-6-12-4-16-1-8v-18l2-14 5-16 10-26 1-6-4-8-9-4-4-2-7 1-14 8-13 5-4 1h-28l-12-4-10-6-5-4 1-2 10 7 8 4 10 3h21l13-4 11-6 8-7 7-10 5-11 2-8 1-27-3-1h2z" fill="#B8CED9"/>
<path transform="translate(546,412)" d="m0 0h9l12 3 8 5-6 12-3 2-7-4-10-1-3 3 1 5 19 7 7 6 3 8-2 12-6 7-9 4-13 1-12-3-12-6 1-4 7-9 12 6 3 1h7l4-2 1-6-9-3-13-5-5-4-4-8v-10l4-9 9-6z" fill="#135080"/>
<path transform="translate(727,359)" d="m0 0 4 2 6 11 2 1v3h2l6 11v2l2 1v2l5 10 3 4 3 8 2 4 4 10 4 14 2 6 3 15 2 16 1 9 10 1 7 3 5-1 14-7 9-3 13-1-1-15-1-3-2-22-3-17v-5l3-1 5 2 9 27 1 11-2 4v14l-1 3 3 1-6 2-7 2-14 2-12 5-10 7-9 9-8 14-3 9-2-3v-2h-2l-6-28-2-19h-1l-3-27-5-22-9-27-12-25-9-15z" fill="#22669B"/>
<path transform="translate(353,795)" d="m0 0h9l10 4 5 5 5 8 1 3v9l-3 8-9 10-7 6-5 2h-8l-10-6-8-11-2-7v-10l4-10 7-7 6-3z" fill="#134D7D"/>
<path transform="translate(576,488)" d="m0 0h11l9 4 8 7 3 7v14l-5 10-7 6-12 3-11-1-10-6-5-7-2-8 1-12 4-8 7-6z" fill="#0E95C9"/>
<path transform="translate(750,221)" d="m0 0h2l7 10 11 9 6 1h6l5 4 3 3 6 5 5 9 6 11 2 8 1 15 3 9 8 7 4 6 5 5 6 8 8 12 7 7-4 2-4-6-8-3-11-3-1-8-3 2-1 6-6 2h-4l-1-4 5-1v-2l-7-1-2-2v-6l-3 1-7-5 2-4h2l2-5 6-12 2-9-4 1-4-2-3-13-6-11-4-5-10-7-10-4-6-1h-23v-2h-2l1-3 5-3 12-3-1-1v-5l1-4z" fill="#1894C6"/>
<path transform="translate(243,880)" d="m0 0 8 6 13 10 5 2 20 1v1l-52 1h-31l-5 3-4 5h-2v7l5 6 4 1h48l48-1h96l5-2 18-2 5-1v-9l-19 1-3-4v-2l-6-2-106-1v-1l102-1 10-9 7-6-2 4-8 9-1 4 9 3 19 1 16 4 9 1 2 1-2 4-28 6-18 4-10 1h-103l-57 2h-30l-24-4-22-2-9-2-9-1-2-2 9-3 5-5 4-2 35-5 8-2 15-1h32l5-2 1-3-7-8-3-3z" fill="#1E97C6"/>
<path transform="translate(393,413)" d="m0 0h47l2 1v15l-1 1h-16v50h-20v-50h-16v-16z" fill="#135181"/>
<path transform="translate(662,777)" d="m0 0 4 5 8 8 9 7 10 8 7 4-2 2-8 4-13 4-4-1-3-5-3-8-4 2v-2l-8-1-13 3-9 4-5-1-7-7-6 2-5 3-18 6-5 2-2-1v6l-2-1v-15h3v-2l26-6 24-8z" fill="#D28737"/>
<path transform="translate(903,611)" d="m0 0 3 1-4 4v7l4 13 1 5v15l-4 1-2-7-1-14-4-6h-8l-3 3v3l4 2 4 5 5 11v5l-5 6-3 13-2 2-5-1-3-5v-7l2-4-5-2-2-10-1-6 4-7-1-3-8 1-6 4v6l1 1 2 10 7 8 1 4-5 11 2 11 6 21 1 16v14l-2 18-5 16-1-3 4-15 1-6v-28l-4-16-7-15-2-6-5-14-1-8v-18l2-9 4-4 13-4 8-4 12-3 3-3h1v-5l4-2z" fill="#B0B1AD"/>
<path transform="translate(615,489)" d="m0 0h10l5 5 12 17 4 5 1-26 1-1h11l1 1v48h-14l-8-10-7-10v-2h-2l-1 21-3 1h-10l-1-1v-47z" fill="#0E95C9"/>
<path transform="translate(250,641)" d="m0 0h6l10 18 10 15 12 17 11 13 7 8 9 9v1l-19-1-5-1-3-8-5-2-5-7 1-3h1v-2l-10-2-5-6-3 1v2l-4 1-1-1-9 1-8 5h-3l1-4 3-3h4l-2-10 12 2 3-1 2-5 5 2-1-7 1-5-13-2-7-8-4-12 5-2h4z" fill="#E4E7E9"/>
<path transform="translate(252,357)" d="m0 0 1 2-9 20-10 30-7 28-4 24-2 27v19l2 27 5 27v5l-2-3v-3l-4 1-2 1-4-16-4-13v-3l3-2h4v-54l2-18 2-11 2-12v-5l-5 4-1 2h-2l-2 4-7 7-8 6-2 3h-2v-2h-2l2-11-3 2 1-5 8-12 11-10 5-3 10-9 5-3v-5l-2-1-2-3-1-3 2-2h3l1-3 5-1 2-6 4-10 5-9z" fill="#D3DDE2"/>
<path transform="translate(841,480)" d="m0 0h10l12 3 13 5 11 7 7 7 7 11 5 15 1 7v11l-4 16-6 11-8 10-8 7-14 8-11 4-4-1 14-7 11-9 8-9 7-14 3-12v-11l-2-10-5-13-6-10-9-10-11-7-13-4-15-2v-1z" fill="#B9CCD5"/>
<path transform="translate(438,489)" d="m0 0h7l5 1 1 29 1 5h9l3-3 1-4 1-27 1-1h10l1 1v35l-4 7-6 5-3 1h-16l-9-6-3-5-1-4v-33z" fill="#0E95C9"/>
<path transform="translate(291,251)" d="m0 0h2l-1 5-2 6 5 2 6 1 6-6 4 2v7l2 1 6-3 11-10 2 1-8 8-10 8-12 12-9 11-6 7-9-1-8-2-2-5v-3l-2-1-1-6 5-3 4-10 4-4 3-6 9-9z" fill="#B8CCD6"/>
<path transform="translate(499,489)" d="m0 0h18l7 3-4 7-3 3-10-2-5 1 1 5 13 3 8 7 1 10-4 7-5 4-8 2-12-1-11-5 4-7 4-2 9 3 8-1v-4l-16-6-5-5-1-2v-10l4-6 4-3z" fill="#0E94C8"/>
<path transform="translate(398,911)" d="m0 0 4 5-2 5-4 2h-96l-48 1h-43l-8-2-1-6v-3h18l-4 2 1 2 18 1 11-1 4-1h14l5 1h7l1 1h37l5-1 6 1 13-2h13l18-1h26v-2h5z" fill="#D58530"/>
<path transform="translate(393,489)" d="m0 0h35l1 1v10l-1 1h-22v9h21l1 1v8l-1 1-19 1-1 16-1 1h-13z" fill="#0E93C7"/>
<path transform="translate(720,210)" d="m0 0 18 1 7 4 6 7 4 7-2 9 2 1-9 3-7 3-3 3h2v2l7-1h16l8 2 5 2-3 1-12-3-15 1-11 4-3 2-6-5 2-4 10-7 1-2v-7l-2-6-5-2-6-2-7 1-7 6-3 7-2-1-2-4-5-2h-2l2-5 4-6 8-7z" fill="#2C70A2"/>
<path transform="translate(877,405)" d="m0 0 13 1 6 6 2 6v12l-3 6-7 6-9 2-11-3-2-4-4-3v-17l5-8 5-3z" fill="#EF9A37"/>
<path transform="translate(751,259)" d="m0 0h8l10 3 8 6 6 9 2 6v11l-4 11-4 3-8-9-10-13-12-13-9-9 8-4z" fill="#B9CFDA"/>
<path transform="translate(524,253)" d="m0 0h13l26 2 22 4-1 2-22-3-25-2h-14l-23 2-17 3-25 6-6 3-10 4-24 12-14 8-3 1v3l-6 2-6 6-3 1-7 5h-2l-2 4-4 1v2l-8 7-6 8-7 6-3 5-4 5-3 3-8 13-3 7-3 3-2 6h-2l-2 6-8 14-7 18v9h-2l-3 10-1 4h-2v9l-4 31v26l1 3v9l1 1v8l1 6-2 2-3-24v-40l2-17 5-23 9-27 11-24 10-17 8-12 11-14 12-13 14-14 14-11 14-10 19-11 25-12 24-8 29-6z" fill="#CFDBE1"/>
<path transform="translate(807,277)" d="m0 0 2 4 1 15 3 9 8 7 4 6 5 5 6 8 8 12 7 7-4 2-4-6-8-3-11-3-1-8-3 2-1 6-6 2h-4l-1-4 5-1v-2l-7-1-2-2v-6l-3 1-7-5 2-4h2l2-5 6-12 1-9 1-6-4-1 1-2h1z" fill="#E3E7E9"/>
<path transform="translate(408,883)" d="m0 0v3l-7 7-3 7 9 3 19 1 16 4 9 1 2 1-2 4-28 6-18 4-10 1h-103l-57 2h-30l-4-1-1-3h52l48-1h96l5-2 18-2 5-1v-9l-19 1-3-4v-2l-6-2-106-1v-1l102-1 10-9z" fill="#B0B1AD"/>
<path transform="translate(297,721)" d="m0 0h13l7 2 9 9 8 7 15 13 12 8 3 3-17 1-6 1h-12l3-2 2-1-2-7-9-8-4-4-13-7-10-6-3-2v-2h-2v-2l-2-1 1-1z" fill="#14416C"/>
<path transform="translate(745,871)" d="m0 0 7 2 29 1 5 3 2 3v11l-4 5-33 2-5 2h-5l4-1z" fill="#1597C9"/>
<path transform="translate(860,794)" d="m0 0 1 2-9 13-12 13-8 7-10 5-17 5-19 2h-17l-20-3-26-8-12-3-7 1-5 5-9 14-9 9-12 8-13 4-6 1h-17l-11-3 3-1 9 2h15l15-4 11-6 12-11 7-11 5-13 1-12 6 2 12 6 11 3v1h-5l4 4 10 5 16 5 17 2h11l13-1 19-5 16-7 14-11 10-11z" fill="#B0B1AD"/>
<path transform="translate(141,514)" d="m0 0h6l5 4 3 5 1 9-4 8-8 6-3 1h-7l-7-4-5-8-1-4v-7l2-3 11-3z" fill="#B9CFDA"/>
<path transform="translate(791,652)" d="m0 0 7 3 11 9 11 14 10 18 1 7-2-3-6-12-9-13-5-5-2-1-2 5-7 13-4 6 1 5 1 4-3-3-9-12-7-9 2-5z" fill="#144E7E"/>
<path transform="translate(334,765)" d="m0 0h6l-4 3-8 7-8 9-6 12-3 11v19l5 15 5 9 1 3h-6l-9-11-5-10-2-12v-9l1-11 8-16 11-12 10-6z" fill="#E29F4F"/>
<path transform="translate(182,563)" d="m0 0v3l-10 10h12l7 2v6l-4 5h-2v4h2v-2l3-1 4 2 4 18-10-3-15-8-10-8-8-7 3-3 14-9z" fill="#B9CFDA"/>
<path transform="translate(223,428)" d="m0 0h2l1 7-2 10-3 18-4 4h-2l-2 5-3 6-5-1-4-4v-2l-3-1v-2h-2l-1-9 4-8 13-11 5-6h2l2-4z" fill="#FBFBFB"/>
<path transform="translate(585,260)" d="m0 0 7 1 24 8 22 10 23 14 17 13 10 9 8 7 15 16 13 17 11 18 10 19 8 20 7 23 4 21 2 21v28l-1 11h-1l-1-7v-8h1v-14l-2-6 1-11-1-10-1-2v-10h-2l-4-18-2-7-5-17-10-21v-2h-2l-3-7-3-3-3-9-3-1-2-5-4-5-4-4v-3h-2l-2-5-9-9-7-8-10-9-11-9-2-1v-2l-5-2-11-8-2 1-1-4h-5v-2l-16-9-3-1v-2l-6-1-19-7v-2h-7l-7-2-4-2z" fill="#D3DDE3"/>
<path transform="translate(396,779)" d="m0 0 5 1 15 6 17 7 5 2-1 7-1 1-15-1-4 7h-3v2l-5 3-4-2v-2h-5v-14l-3-12z" fill="#14416C"/>
<path transform="translate(202,492)" d="m0 0h7l1 1v14l-2 13v12l4 13-1 2h-2v-2l-4-1-4-3v-2h-3v-2l-3-1-2-6-2-3 2-3-1-8-3-10 2-6 1 2 4 1 9 5 2-5h-6l-9-4 1-3 6-3z" fill="#E4E7E9"/>
<path transform="translate(772,721)" d="m0 0 2 1-1 8-4 11-9 14-7 7-9 6-13 5-15 3h-7l-1-2 18-8 12-8 15-13 10-11 7-10z" fill="#D5DEE3"/>
<path transform="translate(774,254)" d="m0 0 5 1 9 7 7 10 4 9 2 10h4l3 1v6l-3 8-7 12-3 3 7 5h2l2 7 7 2v2l-4 2-2 5-2 10 3 1-5 1-4-10 1-5 4-3-1-4-6-1-3 3-8-13 7-15 2-8v-17l-4-11-6-9-9-7z" fill="#1677AB"/>
<path transform="translate(811,354)" d="m0 0h5l3 6v2l4 2 2 9 6 2 10 9 1 5-3 6-5 3-10 1-8-19-7-16-3-5 1-4z" fill="#B9CFDA"/>
<path transform="translate(533,489)" d="m0 0 13 1 1 28v16l-1 3h-13l-1-9v-36z" fill="#0E94C8"/>
<path transform="translate(361,219)" d="m0 0h10l1 5-4 6-10 6-14 11-11 9-5 3-10 9-6 2-1-4v-7l-1-2 7-1 4-1 1-3 7-5 1-3 10-6 9-9 1 3 7-6 2-4h2z" fill="#D28737"/>
<path transform="translate(321,768)" d="m0 0 2 1-9 8-3 6-8 14-1 3-1 11v9l2 12v8l-5-4-6-9-2-8-1-12 2-10 6-12 6-7 8-6z" fill="#0F92C6"/>
<path transform="translate(573,167)" d="m0 0h1v16l-4 1-21-2h-38l-27 3-30 6-19 6-16 6-18 8-16 8-13 7-1-7-2-1h-5v-3l5-2 2-5 4 5 7-1 9-5 13-1 13-5 14-6 30-9 28-5 20-2h37l21 2 3-1 2-6z" fill="#B5C4C9"/>
<path transform="translate(856,601)" d="m0 0h2v2l-13 5-1 5-1 3h-2l-2 5-6 3h-2v2h-2v5h-8l-4-2 1-11-5-4-1-3 3-9h7l4 1h21z" fill="#144F7F"/>
<path transform="translate(291,251)" d="m0 0h2l-1 5-2 6 3 1v2h-3v2h-2l-1 3-1-1-3 6v2l9-4h2v-2l6-3-1 4-4 4-2 6-5 4h-2v2h-2v5l-2 3 2 1-2 4h-2v-2l-5-1-2-1v2h-3l-2-4v-3l-2-1-1-6 5-3 4-10 4-4 3-6 9-9z" fill="#D4DDE2"/>
<path transform="translate(830,417)" d="m0 0 7 2 9 27 1 11-2 4v14l-1 3 3 1-6 2-1 1h-5v-17l-1-3-2-22-3-17v-5z" fill="#134F7F"/>
<path transform="translate(832,701)" d="m0 0 3 4 5 12 2 9v27l-5 16-5 9-12 14-11 8-5 3-2-1 9-8 10-13 8-16 4-12 2-11v-24l-3-14z" fill="#B9CBD4"/>
<path transform="translate(250,256)" d="m0 0h9l3 3h-2l3 7-2 5-4 3-6 1-5-3-5 12-1 7-5 4-4 1-3 3h-8l-21 6-14 6-16 10-11 9-13 13-10 14-1-2 10-14 11-12h2v-2l17-13 12-7 14-6 21-6 12-2 4-4 5-16 1-10 5-6z" fill="#B6C6CD"/>
<path transform="translate(719,222)" d="m0 0 9 1 7 4 3 6v7l-4 5-8 5-5-1-8-7-5-5 1-7 8-7z" fill="#BACFDA"/>
<path transform="translate(225,423)" d="m0 0h2l2 2-6 36-2 27v19l2 27 5 27v5l-2-3v-3l-4 1-2 1-4-16-4-13v-3l3-2h4v-54l2-18 2-11 2-12v-5l-5 4-1 2h-2l-2 4-7 7-4 3-2-1 2-7 7-1 2-6 2-1 4-7 3-1 3 1z" fill="#CAD8DF"/>
<path transform="translate(153,677)" d="m0 0h8l5 3 3 5v10l-3 6-5 3h-9l-7-6-1-2v-10l4-6z" fill="#F19B36"/>
<path transform="translate(216,720)" d="m0 0h5l5 3 7 4v2l3 1 3 4v2h2l-1 9-8 16-9 19-2 3 1-6 11-29 1-6-4-8-9-4-4-2-7 1-14 8-13 5-4 1h-28l-12-4-10-6-5-4 1-2 10 7 8 4 10 3h21l12-3 6-2 10-6 10-8z" fill="#B0B1AD"/>
<path transform="translate(577,501)" d="m0 0h8l5 3 3 4v10l-4 6-6 3-7-1-5-4-2-4v-9l3-5z" fill="#F3F5F6"/>
<path transform="translate(882,588)" d="m0 0 2 1-3 5h-2l-2 5h-2l-1 4-13 6-3 2h-3v2l-5 4-3 3-1 3h-2v2h-4l9 3v3h2v2h-13l-2-1v-7l-3 1-3 6-4-1 2-2 1-3h2v-2l6-3h2l2-5h2l1-8 8-4 6-1v-3l13-5z" fill="#22689E"/>
<path transform="translate(686,791)" d="m0 0 7 1 14 5 6 1-4 1-1 5h2v4l2 1-1 4 6 2 13 4 15 1 20-2 17-6 10-5 5-2-4 4-16 8-14 4-16 2h-9l-13-2-14-5-10-6-3-3-10-7-3-3z" fill="#1578AC"/>
<path transform="translate(439,796)" d="m0 0 9 1 25 6 29 4 18 1h21l24-2 13-2h8l-3 1 1 15 1 7-2-2-3-17h-8l-11 2-11 1h-42l-23-2-19-4-19-5h-5l-1 2-2 21-2 14 1 4-3-2v-8l2-9z" fill="#BAC6CB"/>
<path transform="translate(186,507)" d="m0 0 4 1 4 12-1 6v3l2 2 1 5 2 1v2h3l5 5 6 3 2 3-1 7-6 9-7 1-7-9v-4l5-3 1-1v-5l-4-2-4-5 2-5-4-4 1-4 1-3-4-13z" fill="#D4DDE2"/>
<path transform="translate(925,485)" d="m0 0 3 3 6 16v2h-4v2h-5l-1-5-1 9h-4l-2 4-4-1-4-9-3-6 4-5 4-3 1 2 6-2 4-3z" fill="#1195C7"/>
<path transform="translate(220,386)" d="m0 0 3 1 6 8 5 6-9 7-9 8-5 3-9 8-4 4v-4l10-15 8-15 3-7z" fill="#FBFBFB"/>
<path transform="translate(778,562)" d="m0 0 2 3 6 12 9 11 11 8 12 5-3 1-2 9h-4l-3-1-5-5-5-3-6-7v-2h-2l-4-6-2-6-5-14z" fill="#165081"/>
<path transform="translate(811,613)" d="m0 0 5 2 3 3-1 6-3 6-4 14-1-3-4 1-1 3 3 1-7 1v-2l-5 2 1-5z" fill="#CED9DF"/>
<path transform="translate(729,368)" d="m0 0 2 1v2h3l11 21 8 20 7 23 4 21 2 21v28l-1 11h-1l-1-7v-8h1v-14l-2-6 1-11-1-10-1-2v-10h-2l-4-18-2-7-5-17-10-21v-2h-2l-3-7-3-3z" fill="#D3DDE2"/>
<path transform="translate(381,817)" d="m0 0h2v7l-3 8-9 10-7 6-5 2h-8l-8-5 3-1 3 1 7-3h4v-2l6-4h2l2-4 5-6 2-4h2z" fill="#14406B"/>
<path transform="translate(791,313)" d="m0 0 3 3 2 6 6 4h2l2 7 7 2v2l-4 2-2 5-2 10 3 1-5 1-4-10 1-5 4-3-1-4-6-1-3 3-8-13z" fill="#1E6396"/>
<path transform="translate(807,277)" d="m0 0 2 4 1 15 3 9 8 7 4 6 5 5 6 8 8 12 7 7-4 2-4-6-8-3-7-2v-1h5l-5-11v-2h-2v-4h-2l-8-11-6-3-2-8-1-11 1-4-4-1 1-2h1z" fill="#B9CDD7"/>
<path transform="translate(243,880)" d="m0 0 8 6 13 10 5 2 20 1v1l-52 1h-31l-5 3-4 5h-2v7l5 7-5-2-3-4v-9l4-5-4-2 8-2 15-1h32l5-2 1-3-7-8-3-3z" fill="#B0B3B0"/>
<path transform="translate(153,914)" d="m0 0 39 1 3 5 6 4v1h-8l-12-2-15-2-12-3-2-2z" fill="#2770A2"/>
<path transform="translate(305,795)" d="m0 0h2l-2 9v19l3 7-1-6 1-16h1v18h2l5 15 5 9 1 3h-6l-9-11-5-17v-21z" fill="#D78934"/>
<path transform="translate(822,364)" d="m0 0h3l2 2h6l9 6 5 8v11l-3 3-4 1 1-8-3-5-7-6-6-3z" fill="#1479AD"/>
<path transform="translate(408,883)" d="m0 0v3l-7 7-3 7 9 3 19 1 10 3-3 1-7-2v9l-2-2v-5l-19 1-3-4v-2l-6-2-106-1v-1l102-1 10-9z" fill="#B0B1AD"/>
<path transform="translate(312,396)" d="m0 0 1 4-8 20v9h-2l-3 10-1 4h-2v9l-4 31v26l1 3v9l1 1v8l1 6-2 2-3-24v-40l2-17 5-23 9-27z" fill="#CCD9E0"/>
<path transform="translate(767,784)" d="m0 0 2 1-9 6-11 5-10 3-10 1h-13l-15-4-15-5v6l7 6 8 5-1 2-11-7-11-9v-3l-1-4 6-2 5 2 12 6 15 4h18l17-4 14-7z" fill="#20689D"/>
<path transform="translate(799,645)" d="m0 0h2v2l5-1 9 4 2 3-4 10-4 3-5-5-11-9 4-6z" fill="#D38837"/>
<path transform="translate(830,417)" d="m0 0 7 2 6 18 2 8h-11l-1 3-4-25v-5z" fill="#155586"/>
<path transform="translate(201,644)" d="m0 0 6 1 5 5 8 16-2 1v2l-8 1-4-9-6-9-2-6z" fill="#F3F5F6"/>
<path transform="translate(160,437)" d="m0 0 4 2v38l-5-1-6-3-1-7 4-12 3-4z" fill="#D5DEE3"/>
<path transform="translate(803,311)" d="m0 0h3l2 5h2v2h2v3l-5 2 2 4 3-1v3l4-1 3 2-2 5-5-1h-6l-2-2v-6l-3 1-7-5 2-4h2l2-5z" fill="#F5F6F7"/>
<path transform="translate(387,775)" d="m0 0 5 2 5 5 3 8 1 6v8l-4 8-13 12h-1v-6l4-2 5-10 2-7v-12l-4-8z" fill="#B1B2AF"/>
<path transform="translate(767,476)" d="m0 0 2 2 3 17 4 8 4 10h3l-1 5-4 11-2-3v-2h-2l-6-28-1-7z" fill="#205987"/>
<path transform="translate(215,559)" d="m0 0 3 3 6 11-1 3-3-1-2 6h-2l-2 4v-2l-3-1-6-10 3-5z" fill="#E5E8EA"/>
<path transform="translate(200,923)" d="m0 0h98v1l-6 1-57 2h-30l-4-1z" fill="#B0B1AD"/>
<path transform="translate(190,537)" d="m0 0 2 1v2l3 1 1 2 4 2v5l-4 4-5 1v2l-5-2-5-1-1-2 3-6-1-5-1-2 8-1z" fill="#B9CFDA"/>
<path transform="translate(250,258)" d="m0 0h7l5 4 1 6-4 5-8 2-5-3-1-2v-7z" fill="#F19B36"/>
<path transform="translate(245,271)" d="m0 0 6 3 9-1-3 4-3 7-1 2h-2l-2 5-4 4-5-1 2-14z" fill="#D4DDE2"/>
<path transform="translate(772,721)" d="m0 0 2 1-1 8-4 11-9 14-7 7-9 6-7 3-3-1 7-4h3v-2l9-6 4-2 2-4 5-9h2l2-5 2-6v-4l-8 11-7 8-11 9-13 10h-2v-2l10-7 14-12 10-11 7-10z" fill="#E2E6E8"/>
<path transform="translate(344,644)" d="m0 0h3v2l4 1 4 6 1 3h2l3 5 2 3 5 3 3 3v2h3l5 5 4 3v2l14 7 5 5 3 1 1 5-5-2-14-10-13-11-10-9-10-10-9-11z" fill="#CFD9DE"/>
<path transform="translate(437,799)" d="m0 0h1l1 13-1 10-2 1-2-5-2-1v-2l-4-2-6-4-4-2 3-6 15 1z" fill="#22659B"/>
<path transform="translate(809,666)" d="m0 0 5 4 7 10 9 16 1 7-2-3-6-12-9-13-5-5-2-1-2 5-7 13-4 6 1 5 1 4-3-3-3-5v-3l-1-3 1-2h2v-3h2l1-4 6-6h2l3-6z" fill="#206A9F"/>
<path transform="translate(99,562)" d="m0 0 7 6 4 3 8 16 11 13 4 5-8 4-4 9-10 37-2 9h-1l1-11 9-35 6-12 1-5-11-16-7-12-8-9z" fill="#B5C2C7"/>
<path transform="translate(426,906)" d="m0 0 25 3 2 1-2 4-18 4h-7z" fill="#165081"/>
<path transform="translate(668,773)" d="m0 0 6 1 9 10v2l-5 1 1 4 1 2-4-1-8-7-5-6v-4z" fill="#165182"/>
<path transform="translate(252,357)" d="m0 0 1 2-9 20-8 23-3-4v-2l-2-1-2-3-1-3 2-2h3l1-3 5-1 2-6 4-10 5-9z" fill="#B9CFDA"/>
<path transform="translate(593,183)" d="m0 0h9l16 5 12 6-1 2h-7l-21-6-4-1v-2l-4-1z" fill="#144471"/>
<path transform="translate(234,365)" d="m0 0h3l2 9 1 2-2 1 1 4-4 2-2 4-4 2v2l2 1 3 6-1 2-8-8-3-5-2-2 5-2 4-2 2-4h2v-2h2l-2-9z" fill="#E4E7E9"/>
<path transform="translate(861,416)" d="m0 0h1l1 18-2 7-2 1-3-3-4-12v-6l5-3h3z" fill="#D3DCE0"/>
<path transform="translate(434,274)" d="m0 0h7l-4 2-19 10-14 8-3 1v3l-6 2-6 6-3 1-7 5-1-3 17-13 21-13z" fill="#D3DDE2"/>
<path transform="translate(737,240)" d="m0 0 1 3 2 1-4 4h2v2l7-1h16l8 2 5 2-3 1-12-3-15 1-11 4-3 2-6-5 2-4 10-7z" fill="#1874A8"/>
<path transform="translate(391,297)" d="m0 0 2 1-13 11-10 8-18 18-9 11-6 8-2-1 2-5 9-10 7-8 4-5 8-7 7-7z" fill="#177BB0"/>
<path transform="translate(153,675)" d="m0 0h8l6 4 4 8v7l-4 8-5 3h-11l-6-4-2-3-5-3v-5l4-3 3-7 5-4zm0 2-5 3-4 6v10l6 7 2 1h9l6-4 2-5v-10l-4-6-4-2z" fill="#BDC1C2"/>
<path transform="translate(700,827)" d="m0 0h2l-2 5-10 15-9 9-12 8-13 4-6 1h-17l-11-3 3-1 9 2h15l15-4 11-6 12-11 7-11 3-7z" fill="#B0B1AD"/>
<path transform="translate(700,810)" d="m0 0 6 2 12 6 11 3v1h-5l2 4-9-3-7-4-6-2-1 5 4 2v3l-7 1-2 1z" fill="#B8C8CF"/>
<path transform="translate(815,602)" d="m0 0h7l6 2 15 1-4 2-12 1-6 3-1 5 1 4h-2l-5-5-2-4z" fill="#14426E"/>
<path transform="translate(171,598)" d="m0 0 5 2 17 8 12 4 18 2 16-1 1 2-3 1-14 1-17-2-21-7-11-6-4 1-5 3 2-4z" fill="#1281B5"/>
<path transform="translate(205,601)" d="m0 0 5 3 2 7 7-2h4v2l12 2v1l-14 1-16-2-4-2h2l-1-9z" fill="#B9CFDA"/>
<path transform="translate(807,277)" d="m0 0 2 4 1 15 3 9 8 7 4 6 5 5 2 4-6-2v-2h-2l-8-11-6-3-2-8-1-11 1-4-4-1 1-2h1z" fill="#B2B5B2"/>
<path transform="translate(391,207)" d="m0 0h12l-3 2-9 3-13 6h-5v8h-1l-1-7-2-1h-5v-3l5-2 2-5 4 5 7-1z" fill="#B9BDBC"/>
<path transform="translate(247,338)" d="m0 0h9l-1 5-1 1-1 9-2 3-4-1v-2h-2l-1-10-2-3z" fill="#E4E7EA"/>
<path transform="translate(884,640)" d="m0 0 5 1 3 4v8l-3 2-7-1-3-4 1-6z" fill="#F19B36"/>
<path transform="translate(477,437)" d="m0 0 3 3 4 11v4h-13l-1-2 6-15z" fill="#E6ECEF"/>
<path transform="translate(417,201)" d="m0 0h2v2l-18 8-28 14v-7l10-3 12-6 9-3z" fill="#BACFD9"/>
<path transform="translate(307,259)" d="m0 0h2l-1 3h-2l-1 4h-2l-2 4-2-1-5 2v2l-6 3h-3l-1 2-3-1 4-8 5-2v-2l5-1 6 1z" fill="#BCD0DA"/>
<path transform="translate(250,641)" d="m0 0h6l10 18 3 4 2 7 1 4h-2l-5-9-8-10-5-11-2-1z" fill="#EEF2F4"/>
<path transform="translate(220,783)" d="m0 0 2 4-3 15v24l4 17 5 12-1 3-6-12-4-16-1-8v-18l2-14z" fill="#B0B4B1"/>
<path transform="translate(109,665)" d="m0 0 7 6 5 6-1 6-4 4h-7l2 15 5 13 8 11-2 1-8-11-5-11-2-9v-7l3-5 7-2-1-7-7-7z" fill="#B1B6B4"/>
<path transform="translate(667,202)" d="m0 0 3 3 4 1 1 3 3-1 2 5-5 4-6-2-8-3z" fill="#206A9F"/>
<path transform="translate(760,440)" d="m0 0h1l3 16 2 21v28l-1 11h-1l-1-7v-8h1v-14l-2-6 1-11-1-10-1-2z" fill="#D0DBE1"/>
<path transform="translate(425,791)" d="m0 0 11 3 2 1-1 7-1 1-12-1-3-2z" fill="#134D7D"/>
<path transform="translate(807,298)" d="m0 0 2 4 2 7 6 3 3 5h-3v2l-7-1v-2h-2l-2-5-4 1 1-5 3-6z" fill="#BCD1DB"/>
<path transform="translate(210,898)" d="m0 0 27 1v1l-31 1-5 3-4 5h-2v7l5 7-5-2-3-4v-9l4-5-4-2 8-2z" fill="#B0B1AD"/>
<path transform="translate(871,442)" d="m0 0 9 1 6-1-5 4-2 1v2l11 7 6 3-2 1h-3l-5 8h-1l1-11-9-5-6-6 2-3z" fill="#B0B1AD"/>
<path transform="translate(346,847)" d="m0 0 7 3-2 2-14 4h-10l-7-5h3l23-2z" fill="#B7CBD3"/>
<path transform="translate(585,260)" d="m0 0 7 1 24 8 22 10v1l-7-1-3-1v-2l-6-1-19-7v-2h-7l-7-2-4-2z" fill="#D2DCE2"/>
<path transform="translate(755,558)" d="m0 0 1 3-10 28-9 19-4 5 1-9 3-3 1-5 3-3 4-13 7-14 1-6h2z" fill="#D3DADD"/>
<path transform="translate(250,256)" d="m0 0h9l3 3-3 1-2-1h-7l-4 4v8l-5 13-1 7-5 4-12 2h-6l4-2 12-2 4-4 5-16 1-10 5-6z" fill="#B0B1AD"/>
<path transform="translate(337,839)" d="m0 0 7 6 2 4-2 1-21 2-3-4 3-1h7l6-1z" fill="#E2E6E8"/>
<path transform="translate(292,463)" d="m0 0h1v46l1 3v9l1 1v8l1 6-2 2-3-24v-40z" fill="#CBD8DE"/>
<path transform="translate(225,423)" d="m0 0h2l-1 7-1-2-5 4-1 2h-2l-2 4-7 7-4 3-2-1 2-7 7-1 2-6 2-1 4-7 3-1 3 1z" fill="#E5E8EA"/>
<path transform="translate(790,593)" d="m0 0 4 2 3 3h3v2h6v2l6 1 1 2v6h-4l-3-1-5-5-5-3-6-7z" fill="#215987"/>
<path transform="translate(439,796)" d="m0 0 9 1 19 5-1 2-9-1-10-3h-5l-1 2-2 21-2 14 1 4-3-2v-8l2-9z" fill="#B7C1C3"/>
<path transform="translate(217,539)" d="m0 0 5 2 2 10 1 9-5 2-4-16-1-5h2z" fill="#E4E7E9"/>
<path transform="translate(795,805)" d="m0 0 2 1-11 7-15 6-13 3-11 1h-9l-5-1v-1l26-2 13-3 15-6z" fill="#1D6EA3"/>
<path transform="translate(180,481)" d="m0 0 3 1v13l-4 4-5-6 1-10h4z" fill="#E5E8EA"/>
<path transform="translate(827,408)" d="m0 0h15l1 4-4 2h-4l1 5-8-1z" fill="#157BAF"/>
<path transform="translate(728,229)" d="m0 0 3 3-2 10-4 2-4-4-1-7 3-3z" fill="#D7E0E4"/>
<path transform="translate(243,682)" d="m0 0 6 1 6 3-1 3-8 5-6 5h-3l1-4 3-3h4z" fill="#FBFBFB"/>
<path transform="translate(865,379)" d="m0 0h1v23l4 2h15l3 2h-11l-7 2-5 3-3-10 2-11z" fill="#B0B1AD"/>
<path transform="translate(277,270)" d="m0 0 1 2-5 12-1 13h-3l-1-5-2-1-1-6 5-3 4-10z" fill="#E3E8EB"/>
<path transform="translate(448,548)" d="m0 0h3v2h2l1 5 3-7h5v10l-5-2-2 2h-4l-2-3-1 3h-3v-2h2z" fill="#8BA0AD"/>
<path transform="translate(791,313)" d="m0 0 3 3 3 10-5 5-5-6-1-3z" fill="#216A9F"/>
<path transform="translate(315,170)" d="m0 0 21 1 14 7-5 4h-4l-1-7-5-2h-7l-3 4-3-1-2-3-7-1z" fill="#B0B2AE"/>
<path transform="translate(916,585)" d="m0 0 4 2 4 3-7 10-1-4-6-2 1-4z" fill="#B7C9D1"/>
<path transform="translate(728,620)" d="m0 0v3l-7 11-10 13-7 8-1-3 6-7 6-8 8-12v-2z" fill="#D5DCDF"/>
<path transform="translate(185,462)" d="m0 0 2 1-1 9-3 1-1 4-4 8-2-2 2-10 5-10z" fill="#FAFAFA"/>
<path transform="translate(279,243)" d="m0 0 6 5 4 2-2 5-6 5-7 8-2 2-5-1-2-2 1-4 2 2h5l11-11-1-5-4-4z" fill="#B0B1AD"/>
<path transform="translate(700,655)" d="m0 0h3l-2 4-18 18-9 7-1-2h-2l1-2 5-2 9-8h2l2-4h2l1-3h2l2-4z" fill="#D3DBDF"/>
<path transform="translate(938,522)" d="m0 0v3l-5 5 1 7 8 4 1 7-2 12h-1l-1-10 1-1v-6l-1-1-9-1 1-15z" fill="#B5C4C9"/>
<path transform="translate(277,199)" d="m0 0h1l3 9 1 5-8 4v7l6 5v6l-4 5v-9l-4-6v-9l5-4z" fill="#B0B1AD"/>
<path transform="translate(344,644)" d="m0 0h3v2l4 1 4 6 1 3h2l3 5 2 3 5 3 3 3-1 2-4-4-5-3-7-7-9-11z" fill="#D8DFE2"/>
<path transform="translate(578,804)" d="m0 0h8l-3 1 1 15 1 7-2-2-3-17h-8l-14 2 1-3z" fill="#B6BCBD"/>
<path transform="translate(809,666)" d="m0 0 5 4 7 10 9 16 1 7-2-3-6-12-9-13-5-5-2-1-2 4-1-3 2-3z" fill="#1E6DA2"/>
<path transform="translate(835,372)" d="m0 0h5l3 4 2 7-1 7-2 1-2-9-8-7 1-2z" fill="#21699F"/>
<path transform="translate(663,294)" d="m0 0 5 2 11 9 14 12 14 14-3 1-11-12-11-10-17-13z" fill="#1C74AA"/>
<path transform="translate(846,450)" d="m0 0h1l1 9 3 1h-4l1 8v10l4 1v1h-10l2-2v-19l2-3z" fill="#216A9F"/>
<path transform="translate(357,325)" d="m0 0h2l-1 4-12 13-9 12-2-1 2-5 9-10 7-8z" fill="#177AAF"/>
<path transform="translate(801,312)" d="m0 0 2 4-1 2 2 1v2l3 1-1 1-1 9h-1v-6l-3 1-7-5 2-4h2l2-5z" fill="#C0CFD5"/>
<path transform="translate(328,370)" d="m0 0 1 3-3 3-2 6h-2l-2 6-6 11h-1l1-7 8-16 3-5z" fill="#D6DFE4"/>
<path transform="translate(833,480)" d="m0 0h2l-1 3-14 2-12 5-8 5h-2l2-4 14-7 9-3z" fill="#226499"/>
<path transform="translate(824,328)" d="m0 0 5 1 4 8v3h-9l-2-9h2z" fill="#EAEDEE"/>
<path transform="translate(191,541)" d="m0 0 5 2 3 3-1 4-4 3h-4l-1-8z" fill="#0E95C9"/>
<path transform="translate(686,314)" d="m0 0 6 4 10 10 7 8 5 7-4-2-9-9-7-8-8-7z" fill="#CDDAE0"/>
<path transform="translate(264,894)" d="m0 0 10 2 3 1 1-2 2 1 28 2v1l-19 1-20-1z" fill="#1D6DA2"/>
<path transform="translate(529,548)" d="m0 0h6l2 7-3 3h-5l-2-2v-6h2z" fill="#96A5AE"/>
<path transform="translate(433,908)" d="m0 0h9l9 1 2 1-2 4-18 4-4-1 5-3 11-1 2-2-14-1z" fill="#5A84A3"/>
<path transform="translate(647,548)" d="m0 0 4 1 3-1v5h2v-4h2l1 8-5 1-2-2-1 2h-3z" fill="#8B9FAB"/>
<path transform="translate(745,871)" d="m0 0 7 2 29 1 3 2h-36z" fill="#B6C8CF"/>
<path transform="translate(858,620)" d="m0 0 3 2v2l5 1 6 3v2l-12 2-2-5z" fill="#1F6EA3"/>
<path transform="translate(450,189)" d="m0 0h5l-1 2-19 6-14 5h-2v-2l15-6z" fill="#B6C7CE"/>
<path transform="translate(925,561)" d="m0 0 12 2 2-1-2 6-2 5-1-4-10-3z" fill="#B7CAD2"/>
<path transform="translate(573,167)" d="m0 0h1v16l-4 1-21-2v-2h10l8 1 3-1 2-6z" fill="#B5C4C9"/>
<path transform="translate(765,744)" d="m0 0 1 2-7 10-9 8-9 5-4 2-3-1 7-4h3v-2l9-6 4-2 2-4z" fill="#FBFBFB"/>
<path transform="translate(420,805)" d="m0 0 10 4 6 5 2 5-1 4-2-4-3-2v-2l-4-2-6-4-4-2z" fill="#1478AC"/>
<path transform="translate(803,311)" d="m0 0h3l2 5h2v2h2v3l-3 2-3-1-2-1v-2l-3-1 1-6z" fill="#FAFAFA"/>
<path transform="translate(160,437)" d="m0 0 4 2v38l-2-4-2-33z" fill="#FBFBFB"/>
<path transform="translate(818,332)" d="m0 0h2l-1 8-6 2h-4l-1-4 5-1v-2h-5l4-2 5 1z" fill="#DCDFDF"/>
<path transform="translate(291,251)" d="m0 0h2l-1 5-1 3-10 8-3 3 2-7 10-10z" fill="#D8DFE2"/>
<path transform="translate(700,810)" d="m0 0 4 5-1 7 4 2v3l-7 1-2 1z" fill="#BABEBE"/>
<path transform="translate(758,740)" d="m0 0 2 1-5 6-11 9-13 10h-2v-2l10-7 14-12z" fill="#E7EAEC"/>
<path transform="translate(295,701)" d="m0 0 20 20v1l-16-1v-1h10l-2-5-4-2-8-10z" fill="#C3D3DA"/>
<path transform="translate(269,665)" d="m0 0 4 4 7 11 9 12v3l-11-12-8-13z" fill="#CAD8DF"/>
<path transform="translate(310,561)" d="m0 0 4 2 3 10v3l-7-2v-7-4z" fill="#E5E8EA"/>
<path transform="translate(186,507)" d="m0 0 4 1 4 12-1 6v3l2 2-1 4-4-5-1-4 2-4-4-13z" fill="#CAD8DF"/>
<path transform="translate(796,323)" d="m0 0 6 3h2v3h-3l-1 3-4 2-2 2-3-4 1-2 4-4z" fill="#1E6FA4"/>
<path transform="translate(839,627)" d="m0 0h9l1 4h2v2h-13l-1-2h2z" fill="#134D7C"/>
<path transform="translate(387,685)" d="m0 0 10 4 5 5 3 1 1 5-5-2-10-7v-3l-4-2z" fill="#DAE0E3"/>
<path transform="translate(247,345)" d="m0 0 4 1 2 3-1 6-3 1-2-1v-2h-2l1-7z" fill="#FBFBFB"/>
<path transform="translate(223,296)" d="m0 0h7l-1 3h-9l-18 5-3-1 10-5z" fill="#B6C7CE"/>
<path transform="translate(196,903)" d="m0 0h5l-4 6h-2v7l5 7-5-2-3-4v-9z" fill="#C0C8CB"/>
<path transform="translate(335,628)" d="m0 0h2l3 7 4 2 1 3 2 2-4 2-10-13v-2z" fill="#DEE3E6"/>
<path transform="translate(438,283)" d="m0 0 7 1-2 5-10 4-1-2-2-1 5-1z" fill="#E5E8EA"/>
<path transform="translate(361,857)" d="m0 0 1 4-10 7-4-3 5-5z" fill="#13406B"/>
<path transform="translate(389,778)" d="m0 0 4 4 2 5v12l-4 12-3 3 4-12v-16l-3-6z" fill="#DDE3E6"/>
<path transform="translate(875,615)" d="m0 0 2 1-1 4h-2l1 8h-4l-4-4-1-4 4-1 2 3z" fill="#0E94C8"/>
<path transform="translate(414,703)" d="m0 0 5 2 4 2h4l1 2 3 1v2l4 1v2l-5-1-17-9z" fill="#D5DBDD"/>
<path transform="translate(755,558)" d="m0 0 1 3-9 25-2-2 1-5 6-13 1-6h2z" fill="#D0D8DC"/>
<path transform="translate(569,548)" d="m0 0h8v2h-5v2h5v2h-5v2h5v2h-8z" fill="#9AA8B1"/>
<path transform="translate(829,760)" d="m0 0h1l-1 8-7 13-5 7h-2l2-5 5-7z" fill="#1283B7"/>
<path transform="translate(753,420)" d="m0 0 4 5 3 10v13l-2-4-3-14-2-7z" fill="#D7DFE3"/>
<path transform="translate(804,343)" d="m0 0 3 1-2 10 3 1-5 1-4-10 1-2z" fill="#1677AB"/>
<path transform="translate(169,598)" d="m0 0v3l-7 6-6 3-3-1 5-2 2-5 5-3z" fill="#CFDDE4"/>
<path transform="translate(304,411)" d="m0 0 1 4-7 23-2-2 2-10 5-14z" fill="#1D73A8"/>
<path transform="translate(299,268)" d="m0 0 1 2-5 6-1 2h-2v2l-4 3-2-1 3-7 5-2v-2z" fill="#FAFAFA"/>
<path transform="translate(550,256)" d="m0 0h20l15 3-1 2-22-3-12-1z" fill="#D1DCE2"/>
<path transform="translate(699,224)" d="m0 0 5 1 2 5 1 4-1 3-3-5-5-2h-2l2-5z" fill="#1579AD"/>
<path transform="translate(392,298)" d="m0 0h5l-8 8-3 1-7 5-1-3z" fill="#D5DEE3"/>
<path transform="translate(245,700)" d="m0 0 7 6 13 11 5 5-5-2-14-12-5-4z" fill="#E7EAEB"/>
<path transform="translate(834,622)" d="m0 0 5 1 1 2 4 2h-5v4l-3 1v-7l-3 1-3 6-4-1 2-2 1-3h2v-2z" fill="#1E5E8D"/>
<path transform="translate(628,548)" d="m0 0 5 1v7l-2 2-5-1 1-8z" fill="#AEB5B7"/>
<path transform="translate(614,269)" d="m0 0 9 3 15 7v1l-7-1-3-1v-2l-6-1-8-3z" fill="#CDDAE0"/>
<path transform="translate(546,548)" d="m0 0 5 1v2h-5v2l5 1-1 4-5-1-3-2v-2h2l1-4z" fill="#AFB6B8"/>
<path transform="translate(708,334)" d="m0 0 6 5 9 11 3 4v3h-2l-8-11-8-10z" fill="#1E6DA1"/>
<path transform="translate(377,310)" d="m0 0 1 2-4 5h-3v2l-8 7-7 7-2-1 19-19z" fill="#C9D7DF"/>
<path transform="translate(836,333)" d="m0 0 4 4 6 8 5 6-4 1-4-6-4-3h2l-3-3z" fill="#B8C1C4"/>
<path transform="translate(342,844)" d="m0 0 4 3v2l-2 1-21 2-1-3h9l7-1z" fill="#D0DADF"/>
<path transform="translate(436,549)" d="m0 0 5 1-1 7-8 1 1-5h2z" fill="#7A97AC"/>
<path transform="translate(930,495)" d="m0 0 2 3 2 8-8 1 1-6 2-2z" fill="#B7C9D1"/>
<path transform="translate(906,468)" d="m0 0 7 6-4 1-5 3h-4l2-4z" fill="#B6C7CF"/>
<path transform="translate(803,298)" d="m0 0 4 1-1 5-4 5-1-1-3 4v-6l2-1-1-2 4-3z" fill="#0F8EC3"/>
<path transform="translate(359,187)" d="m0 0 4 4 6 9-1 2-3-4-6 1-1-4 1-1z" fill="#B4B6B4"/>
<path transform="translate(765,477)" d="m0 0h1v28l-1 11h-1l-1-7v-8h1z" fill="#C1CED4"/>
<path transform="translate(596,548)" d="m0 0 5 1 2-1v9h-2v-2l-4-1 1 3-2 1z" fill="#9AA7AD"/>
<path transform="translate(746,397)" d="m0 0 3 4 7 20-1 3-4-8-4-13z" fill="#C8D7DE"/>
<path transform="translate(668,203)" d="m0 0 4 2 3 2v2l3-1 2 5-3 1-3-2v-2l-6-2-1-4z" fill="#1B7BAD"/>
<path transform="translate(396,815)" d="m0 0 2 1-2 5-7 6h-3l2-5z" fill="#215987"/>
<path transform="translate(326,596)" d="m0 0 4 2 2 2v6h-2v4h-2l-2-6 1-5z" fill="#E5E8EA"/>
<path transform="translate(584,548)" d="m0 0h5l1 4-1 3h2v3l-3-1v-2h-3l-1 2z" fill="#95A8B4"/>
<path transform="translate(289,250)" d="m0 0h2l-1 4-14 14-3 2 2-4 9-10 4-4z" fill="#BBC6CB"/>
<path transform="translate(843,666)" d="m0 0 4 2 5 5 8 9 2 1 1 5h-2l-8-11-10-10z" fill="#BBC0C1"/>
<path transform="translate(260,259)" d="m0 0 4 1 2 4-2 9h-5l3-5z" fill="#BEC2C3"/>
<path transform="translate(521,261)" d="m0 0 2 2 1 3-3 2h-6l-6-2v-1l9-1v-2z" fill="#E5E8EA"/>
<path transform="translate(750,221)" d="m0 0h2l7 10 4 4h-6l-3 2v-8z" fill="#B5C2C6"/>
<path transform="translate(293,180)" d="m0 0 2 1-5 5v7l-2 2h-7l5-5 3-6z" fill="#B8B1A3"/>
<path transform="translate(596,274)" d="m0 0h8l2 4-1 1h-7l-3-2z" fill="#E5E8EA"/>
<path transform="translate(882,617)" d="m0 0 3 2 6-1 5-1-1 3-7 3h-5z" fill="#1C74A9"/>
<path transform="translate(821,332)" d="m0 0h2l1 8 4 1h-11l2-1v-6z" fill="#759BB7"/>
<path transform="translate(671,301)" d="m0 0 8 6 7 6-1 3-9-8-5-3z" fill="#D2DCE2"/>
<path transform="translate(303,835)" d="m0 0 4 5 7 10h-3l-8-8z" fill="#216AA0"/>
<path transform="translate(396,549)" d="m0 0 5 1v2h-2v-2l-4 1zm0 3 3 1-3 1v2h3v-2l5 1-1 3h-8l-1-5z" fill="#6C8DA5"/>
<path transform="translate(420,548)" d="m0 0h8l-1 3-5-1v2h5l-3 2-1 4h-3z" fill="#95A5AE"/>
<path transform="translate(857,357)" d="m0 0 2 3 2 5 2 8v13h-1l-3-20-2-3z" fill="#5296B8"/>
<path transform="translate(240,284)" d="m0 0 2 3-1 7 4 2-15 1 1-2 7-3 1-1z" fill="#B9CDD7"/>
<path transform="translate(451,267)" d="m0 0h6l-2 2-8 3-5 2h-6l2-2z" fill="#D0DBE1"/>
<path transform="translate(151,909)" d="m0 0 1 2-2 7h-9l-2-2 9-3z" fill="#B1B6B4"/>
<path transform="translate(205,560)" d="m0 0 1 3h2l-1 3-7 1-2-3 2-2z" fill="#E5E8EA"/>
<path transform="translate(734,396)" d="m0 0h6l4 3h-3l-1 3h-5z" fill="#E5E8EA"/>
<path transform="translate(318,383)" d="m0 0h2l-1 7-5 9h-1l1-7z" fill="#D3DDE2"/>
<path transform="translate(801,312)" d="m0 0 2 4-1 2 2 1v2l3 1-8 1-1-7z" fill="#DAE1E6"/>
<path transform="translate(642,281)" d="m0 0 9 3 6 5 6 4-1 2-20-13z" fill="#1978AD"/>
<path transform="translate(764,236)" d="m0 0 9 5h9v1l-7 2-4 1-2-3-6-1z" fill="#B5C2C7"/>
<path transform="translate(387,775)" d="m0 0 5 2 4 8v15l-2 3v-16l-4-8z" fill="#BCC5C8"/>
<path transform="translate(448,548)" d="m0 0h3v2h2l-1 8-3-3-1 3h-3v-2h2z" fill="#9EABB0"/>
<path transform="translate(824,368)" d="m0 0 6 2v3l8 6 3 3-1 2-9-8-6-3z" fill="#0E93C7"/>
<path transform="translate(727,359)" d="m0 0 4 2 6 11-2 3-8-14z" fill="#1E6B9F"/>
<path transform="translate(854,356)" d="m0 0 3 1 2 8 2 7-1 2-4-6z" fill="#167AAF"/>
<path transform="translate(722,356)" d="m0 0 4 2 7 11v2h-2l-4-5v-2l-3-1z" fill="#D1DCE2"/>
<path transform="translate(391,297)" d="m0 0 2 1-13 11-5 1 5-5z" fill="#1879AD"/>
<path transform="translate(253,276)" d="m0 0 2 1-2 4-8 4h-3l1-3z" fill="#F9FAFA"/>
<path transform="translate(257,273)" d="m0 0 3 1-5 4h-3l-5 3h-2l2-4h2v-2z" fill="#DAE1E4"/>
<path transform="translate(245,271)" d="m0 0 6 3-2 1v2l-3 2-1 3-4 2 3-10z" fill="#BACBD4"/>
<path transform="translate(340,173)" d="m0 0 10 5-5 4h-4z" fill="#B5B7B5"/>
<path transform="translate(557,548)" d="m0 0h8v2h-3v8h-3v-8h-2z" fill="#ABB3B5"/>
<path transform="translate(934,540)" d="m0 0h7l2 3-1 10-1 7h-1l-1-10 1-1v-6l-6-2z" fill="#76B0C6"/>
<path transform="translate(688,314)" d="m0 0 4 2 15 15-3 1-11-12-5-4z" fill="#206BA0"/>
<path transform="translate(200,301)" d="m0 0 3 1-4 1v2l-12 5-4-1 10-5z" fill="#B4BEC1"/>
<path transform="translate(273,297)" d="m0 0 7 2v2h2v-2l5 2v2l-9-1-8-2 3-1z" fill="#C4D5DD"/>
<path transform="translate(219,526)" d="m0 0 1 4-2 4h-3l-2 2-1-6 3-2h4z" fill="#E4E7E9"/>
<path transform="translate(309,260)" d="m0 0 2 1v7l1 2-7-2-1-2 2-4z" fill="#BCC0C1"/>
<path transform="translate(191,917)" d="m0 0h2l4 4v2h-7l-6-2v-1h5v-2z" fill="#1E5786"/>
<path transform="translate(209,583)" d="m0 0h2v2l4 2h3l1 4-2 1 1 4h-2l-3-4-1-5-3-3z" fill="#E5E8EA"/>
<path transform="translate(482,548)" d="m0 0h6l1 9-4 1v-8h-3z" fill="#9BAAB3"/>
<path transform="translate(827,408)" d="m0 0 4 2v4h3v3h2l-1 2-7-1z" fill="#206AA0"/>
<path transform="translate(823,785)" d="m0 0 2 1-5 6-9 7-2-1 12-11h2z" fill="#BDC1C2"/>
<path transform="translate(226,548)" d="m0 0 2 2 2 14v6l-2-4-2-10z" fill="#1A77AC"/>
<path transform="translate(887,456)" d="m0 0 5 2-5 9-2 1 1-9z" fill="#B9CFDA"/>
<path transform="translate(235,613)" d="m0 0 5 1-3 2-14 1v-3z" fill="#1283B7"/>
<path transform="translate(181,553)" d="m0 0 5 1 3 3-5 4-3-5z" fill="#D0DBE1"/>
<path transform="translate(312,400)" d="m0 0h1l-1 11-2 3h-2l-1 3-1-2z" fill="#E5E8EA"/>
<path transform="translate(792,323)" d="m0 0h4l1 3-5 5-2-2 1-5z" fill="#134D7D"/>
<path transform="translate(192,736)" d="m0 0m-2 1h2v2l-13 4h-5l1-2 11-3z" fill="#B1B5B3"/>
<path transform="translate(364,667)" d="m0 0 4 2 2 2 4 1 5 5 1 2-6-2-10-9z" fill="#D1DADE"/>
<path transform="translate(883,669)" d="m0 0 4 1 2 4-1 3-4-1-1-1z" fill="#B9CFDA"/>
<path transform="translate(813,615)" d="m0 0h2l-1 4h2l1 3-2 2-5-3 1-5z" fill="#E4E7E9"/>
<path transform="translate(196,583)" d="m0 0 2 1v2h2v7l-3 2-2-9z" fill="#B9CFDA"/>
<path transform="translate(299,555)" d="m0 0 4 1 1 10-2 3-3-10z" fill="#D5DDE2"/>
<path transform="translate(469,261)" d="m0 0h3v2l-5 2-9 2h-5l3-2z" fill="#CBD9DF"/>
<path transform="translate(307,174)" d="m0 0 1 2-3 5-10-1 3-2 6-2z" fill="#B0B1AD"/>
<path transform="translate(685,797)" d="m0 0 8 6 8 5-1 2-11-7-5-5z" fill="#22689E"/>
<path transform="translate(325,766)" d="m0 0h5l-12 9-5 4 2-4 7-6v-2z" fill="#23679D"/>
<path transform="translate(444,717)" d="m0 0 9 3 4 1v2l2 1-9-2-8-3z" fill="#D2D9DC"/>
<path transform="translate(123,596)" d="m0 0 4 2 6 7-7 2 1-5-4-4z" fill="#B8CDD7"/>
<path transform="translate(172,488)" d="m0 0 3 1 1 5 3 3-2 4-3-5-3-3z" fill="#C9D8DF"/>
<path transform="translate(833,339)" d="m0 0 7 1 1 3-11-1-2-2z" fill="#CCD9E0"/>
<path transform="translate(434,274)" d="m0 0h7l-4 2-9 5h-2v-3z" fill="#D5DEE3"/>
<path transform="translate(307,259)" d="m0 0h2l-1 3h-2l-1 4h-2l-2 4-4-2z" fill="#D9E1E5"/>
<path transform="translate(742,214)" d="m0 0 5 3 2 3-8 1v-4z" fill="#B5C4CA"/>
<path transform="translate(598,127)" d="m0 0 2 1-14 14v-3l7-8z" fill="#76B6CF"/>
<path transform="translate(295,701)" d="m0 0 13 13-3 1-9-10z" fill="#C9D7DF"/>
<path transform="translate(286,692)" d="m0 0 6 4 2 5h-4l-2-5h-2l-1-3z" fill="#F7F8F9"/>
<path transform="translate(303,423)" d="m0 0 2 4-1 2-2 3-2 7h-1v-8l2-5h2z" fill="#D8E0E4"/>
<path transform="translate(682,673)" d="m0 0m-1 1 1 3-8 7-1-2h-2l1-2 5-2z" fill="#D8DEE1"/>
<path transform="translate(729,368)" d="m0 0 2 1v2h3l4 7v2l-3-1-5-6z" fill="#D5DFE4"/>
<path transform="translate(659,295)" d="m0 0h5l7 6v2l-5-2-7-5z" fill="#D6DFE4"/>
<path transform="translate(573,167)" d="m0 0h1v16l-4 1-1-2 2-1z" fill="#B8CED8"/>
<path transform="translate(185,921)" d="m0 0 5 1h8l3 3h-8l-7-1z" fill="#5581A2"/>
<path transform="translate(530,550)" d="m0 0h4l1 5-5 1-1-5z" fill="#F1F1F1"/>
<path transform="translate(877,451)" d="m0 0 6 1 13 7-2 1-7-3-10-5z" fill="#B3BCBE"/>
<path transform="translate(500,549)" d="m0 0 3 1 1 6h2v2l-5-1-2-1v-2l2-1z" fill="#9AA7AD"/>
<path transform="translate(762,533)" d="m0 0 2 1v8l-4 5 1-12z" fill="#154572"/>
<path transform="translate(310,526)" d="m0 0 3 3-1 7-3 2-2-2 2-1z" fill="#E5E8EA"/>
<path transform="translate(854,446)" d="m0 0 7 1-4 2-3 9h-1v-9z" fill="#1F6FA4"/>
<path transform="translate(226,389)" d="m0 0h2l1 2 2 1 3 6-1 2-7-7z" fill="#D7DFE4"/>
<path transform="translate(340,349)" d="m0 0 2 1-6 10-4 1 4-7z" fill="#CBD9E0"/>
<path transform="translate(804,338)" d="m0 0h2l-1 5-5 2v-4z" fill="#134978"/>
<path transform="translate(774,254)" d="m0 0 5 1 9 7 1 5-5-5-10-7z" fill="#1B70A5"/>
<path transform="translate(477,259)" d="m0 0h10l-4 2-11 2 1-3z" fill="#D4DEE3"/>
<path transform="translate(403,185)" d="m0 0 3 1-2 4-4 3h-2l2-6z" fill="#B0B1AD"/>
<path transform="translate(408,883)" d="m0 0v3l-11 11-2-1z" fill="#B8CCD6"/>
<path transform="translate(220,783)" d="m0 0 2 4-3 13h-1v-10z" fill="#B4BEC1"/>
<path transform="translate(686,673)" d="m0 0 2 1-4 4h-2l-2 5-3 2-1-3z" fill="#154673"/>
<path transform="translate(897,418)" d="m0 0h1v12l-2 3-1-11h2z" fill="#C89B68"/>
<path transform="translate(723,819)" d="m0 0 19 1v1l-13 1-6-2z" fill="#1972A7"/>
<path transform="translate(620,714)" d="m0 0 2 2-12 5h-2l1-3z" fill="#D1D8DB"/>
<path transform="translate(414,703)" d="m0 0 5 2 5 3v2l-6-2-5-3z" fill="#D2D8DB"/>
<path transform="translate(639,548)" d="m0 0h4l-2 7 1 3h-3z" fill="#B6B9B7"/>
<path transform="translate(314,419)" d="m0 0 2 1-1 9-2 3-2-1z" fill="#E5E8EA"/>
<path transform="translate(891,408)" d="m0 0 5 4 1 6h-2v-4l-6-3v-2z" fill="#D29A5A"/>
<path transform="translate(818,332)" d="m0 0h2l-1 8-6 2h-4l-1-4 8 1h2z" fill="#C7D4D9"/>
<path transform="translate(357,325)" d="m0 0h2l-1 4-7 7-1-3z" fill="#1976AB"/>
<path transform="translate(807,277)" d="m0 0 2 4v11h-2l1-6-4-1 1-2h1z" fill="#B3BCBE"/>
<path transform="translate(434,914)" d="m0 0h10l-2 2-9 2-4-1z" fill="#5782A2"/>
<path transform="translate(748,896)" d="m0 0h20v1l-17 1-5 1z" fill="#B2B9BA"/>
<path transform="translate(257,712)" d="m0 0 5 2 8 7-2 1-9-7z" fill="#EAECEE"/>
<path transform="translate(833,623)" d="m0 0h4l-1 2-3 1-3 6-4-1 2-2 1-3h2v-2z" fill="#1876A8"/>
<path transform="translate(115,584)" d="m0 0 4 4 5 6-1 3-4-4-4-6z" fill="#B6C5CB"/>
<path transform="translate(346,341)" d="m0 0h3l-2 4-5 5v-4z" fill="#D3DDE2"/>
<path transform="translate(371,317)" d="m0 0h2l-1 3-5 5-4 2-1 2v-3l7-7h2z" fill="#E5E8EA"/>
<path transform="translate(686,314)" d="m0 0 6 4 3 3v2l-5-2-4-4z" fill="#CFDBE1"/>
<path transform="translate(277,283)" d="m0 0h1l1 10 3 5v3h-2l-3-6z" fill="#E8EAEC"/>
<path transform="translate(496,180)" d="m0 0h8l-2 2-9 1-4-2z" fill="#B4BFC2"/>
<path transform="translate(397,896)" d="m0 0 1 4 4 2-2 1-8-4 1-2z" fill="#B1B6B5"/>
<path transform="translate(253,889)" d="m0 0 4 2 9 6v1h-5l-5-5z" fill="#B9CFDA"/>
<path transform="translate(772,721)" d="m0 0 2 1-1 8-2 1v-4l-2-1z" fill="#DDE1E3"/>
<path transform="translate(754,452)" d="m0 0h2l2 8-2 3-3-7z" fill="#E5E8EA"/>
<path transform="translate(843,345)" d="m0 0 4 1 4 5-4 1-4-6z" fill="#AEC1C8"/>
<path transform="translate(286,257)" d="m0 0m-1 1 1 2-2-1zm-2 2 2 1v2l-7 7 2-7z" fill="#EFF1F2"/>
<path transform="translate(657,204)" d="m0 0h2v2l4 1-1 4-4-1-2-5z" fill="#13426E"/>
<path transform="translate(395,196)" d="m0 0 2 1-2 3-3-1z" fill="#BDC1C2"/>
</svg>
